<svg width="30" height="30" viewBox="0 0 30 30" fill="none" xmlns="http://www.w3.org/2000/svg">
<path d="M28.2249 9.1875L15.5937 2.37125C15.2224 2.17125 14.7762 2.17125 14.4062 2.37125L1.7812 9.1875C1.1737 9.5175 0.947447 10.275 1.27495 10.8825C1.49995 11.3013 1.9312 11.5388 2.37495 11.5388C2.57495 11.5388 2.77995 11.4913 2.9687 11.3888L3.8862 10.8938L5.8737 24.9563C6.1437 26.4738 7.5112 27.5338 9.1987 27.5338H20.8012C22.4887 27.5338 23.8562 26.4738 24.1287 24.9238L26.1137 10.8925L27.0349 11.39C27.6412 11.7188 28.3999 11.4925 28.7274 10.885C29.0562 10.2775 28.8274 9.51875 28.2224 9.19125L28.2249 9.1875ZM14.9999 19.2938C12.7562 19.2938 10.9374 17.475 10.9374 15.2313C10.9374 12.9875 12.7562 11.1688 14.9999 11.1688C17.2437 11.1688 19.0624 12.9875 19.0624 15.2313C19.0624 17.475 17.2437 19.2938 14.9999 19.2938Z" fill="#1DA1F2"/>
</svg>
