<svg width="30" height="30" viewBox="0 0 30 30" fill="none" xmlns="http://www.w3.org/2000/svg">
<path d="M24.6875 27.5H5.3125C3.7625 27.5 2.5 26.2375 2.5 24.6875V5.3125C2.5 3.7625 3.7625 2.5 5.3125 2.5H24.6875C26.2375 2.5 27.5 3.7625 27.5 5.3125V24.6875C27.5 26.2375 26.2375 27.5 24.6875 27.5ZM5.3125 4.375C4.795 4.375 4.375 4.79625 4.375 5.3125V24.6875C4.375 25.2038 4.795 25.625 5.3125 25.625H24.6875C25.205 25.625 25.625 25.2038 25.625 24.6875V5.3125C25.625 4.79625 25.205 4.375 24.6875 4.375H5.3125Z" fill="white"/>
<path d="M21.25 10.8H8.75C8.2325 10.8 7.8125 10.3787 7.8125 9.86249C7.8125 9.34624 8.2325 8.92499 8.75 8.92499H21.25C21.7675 8.92499 22.1875 9.34374 22.1875 9.86249C22.1875 10.3812 21.7675 10.8 21.25 10.8ZM21.25 15.9375H8.75C8.2325 15.9375 7.8125 15.5175 7.8125 15C7.8125 14.4825 8.2325 14.0625 8.75 14.0625H21.25C21.7675 14.0625 22.1875 14.4825 22.1875 15C22.1875 15.5175 21.7675 15.9375 21.25 15.9375ZM15 21.075H8.75C8.2325 21.075 7.8125 20.6562 7.8125 20.1375C7.8125 19.6187 8.2325 19.2 8.75 19.2H15C15.5175 19.2 15.9375 19.6212 15.9375 20.1375C15.9375 20.6537 15.5175 21.075 15 21.075Z" fill="white"/>
</svg>
