<svg width="30" height="30" viewBox="0 0 30 30" fill="none" xmlns="http://www.w3.org/2000/svg">
<path d="M27.1212 20.585C27.0962 20.565 24.4462 18.535 24.4925 13.0475C24.5175 9.88251 23.4775 7.07001 21.5587 5.12876C19.84 3.38751 17.5125 2.42501 15.0062 2.41251H14.99C12.485 2.42501 10.1575 3.38751 8.43748 5.13001C6.51998 7.07126 5.47748 9.88251 5.50498 13.0475C5.55123 18.46 2.97998 20.5063 2.87748 20.585C2.55248 20.8263 2.41998 21.2475 2.54623 21.6325C2.67373 22.0175 3.03373 22.2763 3.43623 22.2763H9.58623C9.71373 25.1638 12.0825 27.4763 14.9987 27.4763C17.915 27.4763 20.2812 25.1638 20.4075 22.2763H26.56C26.9625 22.2763 27.3225 22.0188 27.4475 21.6338C27.5762 21.25 27.4437 20.8275 27.1187 20.5863L27.1212 20.585ZM15 25.5975C13.1187 25.5975 11.5875 24.1263 11.465 22.275H18.535C18.41 24.125 16.8812 25.6 15 25.6V25.5975ZM5.47498 20.4C6.39998 18.985 7.40998 16.615 7.37998 13.03C7.35748 10.33 8.18498 8.05251 9.77123 6.44626C11.1375 5.06251 12.9962 4.29626 15 4.28751C17.0037 4.29751 18.8587 5.06251 20.225 6.44751C21.8125 8.05376 22.6412 10.33 22.6187 13.0313C22.5887 16.6163 23.6 18.9875 24.525 20.4013H5.47498V20.4Z" fill="white"/>
</svg>
