<svg width="31" height="31" viewBox="0 0 31 31" fill="none" xmlns="http://www.w3.org/2000/svg">
<path d="M21.6875 13.0938C20.3606 13.0938 19.2812 14.1759 19.2812 15.5C19.2812 16.8241 20.3593 17.9062 21.6875 17.9062C23.013 17.9062 24.0938 16.8255 24.0938 15.5C24.0938 14.1745 23.013 13.0938 21.6875 13.0938ZM21.6875 16.5312C21.1182 16.5312 20.6562 16.0693 20.6562 15.5C20.6562 14.9321 21.1196 14.4688 21.6875 14.4688C22.2554 14.4688 22.7188 14.9308 22.7188 15.5C22.7188 16.0679 22.2568 16.5312 21.6875 16.5312ZM15.5 13.0938C14.1718 13.0938 13.0938 14.1759 13.0938 15.5C13.0938 16.8241 14.1731 17.9062 15.5 17.9062C16.8269 17.9062 17.9062 16.8255 17.9062 15.5C17.9062 14.1745 16.8282 13.0938 15.5 13.0938ZM15.5 16.5312C14.9307 16.5312 14.4688 16.0693 14.4688 15.5C14.4688 14.9321 14.9321 14.4688 15.5 14.4688C16.0679 14.4688 16.5312 14.9308 16.5312 15.5C16.5312 16.0679 16.0693 16.5312 15.5 16.5312ZM9.3125 13.0938C7.98563 13.0938 6.90625 14.1759 6.90625 15.5C6.90625 16.8241 7.98563 17.9062 9.3125 17.9062C10.638 17.9062 11.7188 16.8255 11.7188 15.5C11.7188 14.1745 10.6366 13.0938 9.3125 13.0938ZM9.3125 16.5312C8.74325 16.5312 8.28125 16.0693 8.28125 15.5C8.28125 14.9321 8.74462 14.4688 9.3125 14.4688C9.88037 14.4688 10.3438 14.9308 10.3438 15.5C10.3438 16.0679 9.88175 16.5312 9.3125 16.5312Z" fill="#0F1419"/>
</svg>
