<svg width="30" height="30" viewBox="0 0 30 30" fill="none" xmlns="http://www.w3.org/2000/svg">
<path d="M26.25 9.17124H21.3375L21.8025 3.83124C21.8475 3.31624 21.465 2.86249 20.95 2.81624C20.4288 2.77874 19.98 3.15374 19.935 3.66999L19.4562 9.16999H11.5562L12.0187 3.83249C12.065 3.31624 11.6813 2.86249 11.1688 2.81624C10.6438 2.77874 10.1975 3.15374 10.1525 3.66999L9.675 9.16999H4.7275C4.21 9.16999 3.79 9.59124 3.79 10.1075C3.79 10.6237 4.21 11.045 4.7275 11.045H9.5125L8.825 18.9537H3.75C3.2325 18.9537 2.8125 19.3737 2.8125 19.8912C2.8125 20.4087 3.2325 20.8287 3.75 20.8287H8.6625L8.1975 26.1687C8.1525 26.6837 8.535 27.1375 9.05 27.1837L9.1325 27.1875C9.61375 27.1875 10.0225 26.8187 10.065 26.33L10.5438 20.83H18.4438L17.9813 26.1675C17.9363 26.6837 18.3188 27.1375 18.8337 27.1837L18.9163 27.1875C19.3975 27.1875 19.8062 26.8187 19.8487 26.33L20.3263 20.83H25.2725C25.7887 20.83 26.21 20.4087 26.21 19.8925C26.21 19.3762 25.7887 18.955 25.2725 18.955H20.4875L21.175 11.0462H26.25C26.7675 11.0462 27.1875 10.6262 27.1875 10.1087C27.1875 9.59124 26.7675 9.17124 26.25 9.17124ZM18.6063 18.9537H10.7062L11.3937 11.0462H19.2938L18.6063 18.9537Z" fill="#0F1419"/>
</svg>
