<svg width="30" height="30" viewBox="0 0 30 30" fill="none" xmlns="http://www.w3.org/2000/svg">
<path d="M24.0625 3.77249H5.9375C4.04125 3.77249 2.5 5.31499 2.5 7.21249V22.8312C2.5 24.7287 4.04125 26.2725 5.9375 26.2725H24.0625C25.9587 26.2725 27.5 24.7287 27.5 22.8312V7.21249C27.5 5.31499 25.9587 3.77249 24.0625 3.77249ZM5.9375 5.64749H24.0625C24.925 5.64749 25.625 6.34749 25.625 7.20999V8.10249L15.5625 14.8112C15.2212 15.0362 14.78 15.0387 14.4375 14.8087L4.375 8.10249V7.20999C4.375 6.34749 5.075 5.64749 5.9375 5.64749ZM24.0625 24.395H5.9375C5.075 24.395 4.375 23.695 4.375 22.8325V10.3L13.425 16.3375C13.9037 16.6575 14.4525 16.8175 15 16.8175C15.55 16.8175 16.0963 16.6575 16.575 16.3387L25.625 10.3012V22.8287C25.625 23.6912 24.925 24.3912 24.0625 24.3912V24.395Z" fill="#0F1419"/>
</svg>
