<svg width="30" height="30" viewBox="0 0 30 30" fill="none" xmlns="http://www.w3.org/2000/svg">
<path d="M28.225 9.1875L15.5938 2.37125C15.2225 2.17125 14.7763 2.17125 14.4063 2.37125L1.78126 9.1875C1.17376 9.5175 0.947508 10.275 1.27501 10.8825C1.50001 11.3013 1.93126 11.5388 2.37501 11.5388C2.57501 11.5388 2.78001 11.4913 2.96876 11.3888L3.88626 10.8938L5.87376 24.9563C6.14376 26.4738 7.51126 27.5338 9.19876 27.5338H20.8013C22.4888 27.5338 23.8563 26.4738 24.1288 24.9238L26.1138 10.8925L27.035 11.39C27.6413 11.7188 28.4 11.4925 28.7275 10.885C29.0563 10.2775 28.8275 9.51875 28.2225 9.19125L28.225 9.1875ZM15 19.2938C12.7563 19.2938 10.9375 17.475 10.9375 15.2313C10.9375 12.9875 12.7563 11.1688 15 11.1688C17.2438 11.1688 19.0625 12.9875 19.0625 15.2313C19.0625 17.475 17.2438 19.2938 15 19.2938Z" fill="#1DA1F2"/>
</svg>
